<svg id="Capa_1" enable-background="new 0 0 512 512" height="512" viewBox="0 0 512 512" width="512" xmlns="http://www.w3.org/2000/svg"><g><circle cx="247.5" cy="142.5" r="7.5"/><path d="m191.25 150.072c-3.587 2.071-4.816 6.658-2.745 10.245s6.658 4.816 10.245 2.745 4.816-6.658 2.745-10.245-6.658-4.816-10.245-2.745z"/><path d="m160.317 188.505c-3.587-2.071-8.174-.842-10.245 2.745s-.842 8.174 2.745 10.245 8.174.842 10.245-2.745c2.072-3.587.843-8.174-2.745-10.245z"/><circle cx="142.5" cy="247.5" r="7.5"/><path d="m152.817 293.505c-3.587 2.071-4.816 6.658-2.745 10.245s6.658 4.816 10.245 2.745 4.816-6.658 2.745-10.245-6.657-4.816-10.245-2.745z"/><path d="m198.75 331.938c-3.587-2.071-8.174-.842-10.245 2.745s-.842 8.174 2.745 10.245 8.174.842 10.245-2.745c2.071-3.588.842-8.174-2.745-10.245z"/><circle cx="247.5" cy="352.5" r="7.5"/><path d="m296.25 331.938c-3.587 2.071-4.816 6.658-2.745 10.245s6.658 4.816 10.245 2.745 4.816-6.658 2.745-10.245c-2.071-3.588-6.658-4.817-10.245-2.745z"/><path d="m342.183 293.505c-3.587-2.071-8.174-.842-10.245 2.745s-.842 8.174 2.745 10.245 8.174.842 10.245-2.745.842-8.174-2.745-10.245z"/><circle cx="352.5" cy="247.5" r="7.5"/><path d="m342.183 201.495c3.587-2.071 4.816-6.658 2.745-10.245s-6.658-4.816-10.245-2.745-4.816 6.658-2.745 10.245 6.657 4.816 10.245 2.745z"/><path d="m303.75 150.072c-3.587-2.071-8.174-.842-10.245 2.745s-.842 8.174 2.745 10.245 8.174.842 10.245-2.745.842-8.174-2.745-10.245z"/><path d="m504.5 150h-62c-4.142 0-7.5 3.358-7.5 7.5s3.358 7.5 7.5 7.5h54.5v285h-84.52c4.719-6.272 7.52-14.064 7.52-22.5v-300c0-20.678-16.822-37.5-37.5-37.5h-293.255c-2.99-14.672-14.573-26.255-29.245-29.245v-17.045c8.729-3.096 15-11.432 15-21.21 0-12.407-10.093-22.5-22.5-22.5h-30c-12.407 0-22.5 10.093-22.5 22.5 0 9.778 6.271 18.114 15 21.21v460.79c0 4.142 3.358 7.5 7.5 7.5h30c4.142 0 7.5-3.358 7.5-7.5v-70.255c14.672-2.99 26.255-14.573 29.245-29.245h255.755v22.5c0 20.678 16.822 37.5 37.5 37.5h122c4.142 0 7.5-3.358 7.5-7.5v-300c0-4.142-3.358-7.5-7.5-7.5zm-459.5 347h-15v-452h15zm7.5-467h-30c-4.136 0-7.5-3.364-7.5-7.5s3.364-7.5 7.5-7.5h30c4.136 0 7.5 3.364 7.5 7.5s-3.364 7.5-7.5 7.5zm22.5 367.5c0 9.778-6.271 18.114-15 21.21v-342.42c8.729 3.096 15 11.432 15 21.21zm307.5 52.5c-12.407 0-22.5-10.093-22.5-22.5v-22.5h22.5c12.407 0 22.5 10.093 22.5 22.5s-10.093 22.5-22.5 22.5zm22.5-52.479c-6.272-4.719-14.064-7.521-22.5-7.521h-292.5v-285h292.5c12.407 0 22.5 10.093 22.5 22.5z"/></g></svg>